<?xml version="1.0" standalone="no"?>
<!DOCTYPE svg PUBLIC "-//W3C//DTD SVG 20010904//EN"
 "http://www.w3.org/TR/2001/REC-SVG-20010904/DTD/svg10.dtd">
<svg version="1.0" xmlns="http://www.w3.org/2000/svg"
 width="500.000000pt" height="500.000000pt" viewBox="0 0 500.000000 500.000000"
 preserveAspectRatio="xMidYMid meet">

<g transform="translate(0.000000,500.000000) scale(0.100000,-0.100000)"
fill="#000000" stroke="none">
<path d="M3153 3016 c-97 -31 -155 -94 -168 -187 -11 -71 9 -127 65 -180 42
-41 63 -52 176 -89 143 -48 174 -70 174 -123 0 -60 -69 -97 -138 -74 -28 9
-42 22 -57 54 l-20 42 -92 1 -93 0 0 -64 c0 -60 2 -66 33 -92 17 -15 57 -39
87 -53 50 -24 66 -26 180 -26 117 0 129 2 183 29 166 81 168 324 4 408 -23 11
-87 36 -141 54 -120 41 -142 55 -151 93 -9 42 9 68 55 82 60 18 116 -1 137
-47 l17 -34 83 0 83 0 0 64 c0 62 -1 66 -35 91 -77 59 -272 85 -382 51z"/>
<path d="M612 2958 l3 -62 38 -9 c20 -5 37 -14 36 -20 0 -7 -44 -122 -97 -256
-95 -239 -98 -245 -130 -253 -32 -8 -32 -9 -32 -68 l0 -60 175 0 175 0 0 59
c0 63 -7 70 -67 71 -27 0 -27 -1 -7 50 l16 40 118 0 117 0 16 -40 c17 -43 16
-44 -25 -54 -27 -6 -28 -9 -28 -66 l0 -60 160 0 160 0 0 60 c0 59 0 60 -32 68
-33 8 -35 12 -159 333 l-126 324 -157 3 -157 3 3 -63z m267 -295 l30 -83 -71
0 c-38 0 -68 4 -66 8 2 4 16 45 33 90 16 45 33 78 37 74 3 -4 20 -44 37 -89z"/>
<path d="M1740 2961 l0 -59 35 -6 35 -7 0 -264 c0 -255 -1 -265 -19 -265 -44
0 -51 -10 -51 -71 l0 -59 175 0 175 0 0 60 c0 59 0 60 -32 68 l-33 8 -3 92 -3
92 30 0 c25 0 30 -5 38 -37 l9 -38 62 -3 62 -3 0 146 0 145 -64 0 -64 0 -7
-40 c-6 -36 -10 -40 -36 -40 l-29 0 0 105 0 105 88 0 88 0 10 -37 9 -38 83 -3
82 -3 0 106 0 105 -320 0 -320 0 0 -59z"/>
<path d="M2500 2961 l0 -59 35 -6 35 -7 0 -264 c0 -255 -1 -265 -19 -265 -44
0 -51 -10 -51 -71 l0 -59 175 0 175 0 0 60 c0 59 0 60 -32 68 l-33 8 -3 261
-2 261 35 6 35 7 0 59 0 60 -175 0 -175 0 0 -59z"/>
<path d="M3740 2961 c0 -57 1 -58 33 -67 l32 -10 0 -259 0 -259 -32 -8 c-33
-8 -33 -9 -33 -68 l0 -60 170 0 170 0 0 60 c0 59 0 60 -32 68 l-33 8 -3 102
-3 102 131 0 130 0 0 -104 0 -104 -35 -6 -35 -7 0 -59 0 -60 175 0 175 0 0 60
c0 59 0 60 -32 68 l-33 8 -3 261 -2 261 35 6 35 7 0 59 0 60 -175 0 -175 0 0
-59 0 -59 35 -6 35 -7 0 -95 0 -95 -127 3 -128 3 0 90 0 89 33 10 c31 9 32 10
32 67 l0 59 -170 0 -170 0 0 -59z"/>
<path d="M1423 2430 c-40 -24 -53 -48 -53 -100 0 -57 50 -110 104 -110 69 0
126 53 126 116 0 34 -32 83 -65 98 -44 21 -73 20 -112 -4z"/>
</g>
</svg>
