<?xml version="1.0" standalone="no"?>
<!DOCTYPE svg PUBLIC "-//W3C//DTD SVG 20010904//EN"
 "http://www.w3.org/TR/2001/REC-SVG-20010904/DTD/svg10.dtd">
<svg version="1.0" xmlns="http://www.w3.org/2000/svg"
 width="500.000000pt" height="500.000000pt" viewBox="0 0 500.000000 500.000000"
 preserveAspectRatio="xMidYMid meet">

<g transform="translate(0.000000,500.000000) scale(0.100000,-0.100000)"
fill="#000000" stroke="none">
<path d="M293 2989 c-127 -40 -199 -129 -197 -244 1 -73 26 -126 83 -178 49
-44 96 -69 209 -109 115 -40 179 -73 193 -100 20 -37 14 -96 -11 -124 -45 -47
-167 -57 -239 -19 -38 19 -71 69 -71 108 l0 27 -100 0 -100 0 6 -42 c17 -107
94 -197 206 -239 54 -21 81 -24 183 -24 130 0 177 14 253 72 45 34 82 114 82
179 0 147 -96 243 -315 314 -140 45 -185 80 -185 140 0 47 33 84 86 99 106 29
200 -13 219 -99 l7 -30 95 0 96 0 -6 45 c-11 79 -60 150 -138 197 -80 50 -245
62 -356 27z"/>
<path d="M1320 2525 l0 -475 97 0 96 0 -6 273 c-4 149 -9 308 -12 352 -3 44
-3 76 0 70 3 -5 61 -163 128 -350 l123 -340 68 0 68 0 126 347 c69 191 127
346 129 344 2 -1 -2 -90 -7 -197 -5 -107 -10 -263 -10 -346 l0 -153 95 0 95 0
0 475 0 476 -127 -3 -126 -3 -117 -333 c-65 -183 -120 -335 -123 -338 -5 -6
-18 28 -151 406 l-94 265 -126 3 -126 3 0 -476z"/>
<path d="M2751 2978 c-136 -362 -341 -917 -341 -922 0 -4 46 -5 102 -4 l101 3
32 95 32 95 173 0 173 0 32 -95 32 -95 101 -3 c56 -1 102 1 102 5 0 4 -79 217
-175 473 l-174 465 -90 3 c-87 3 -92 2 -100 -20z m158 -390 c30 -90 56 -169
58 -175 4 -10 -23 -13 -117 -13 -94 0 -121 3 -117 13 2 6 28 85 58 175 29 89
56 162 59 162 3 0 30 -73 59 -162z"/>
<path d="M3390 2525 l0 -475 95 0 95 0 0 175 0 175 79 0 79 0 89 -175 88 -175
103 0 c56 0 102 4 102 8 0 5 -45 94 -100 198 -87 164 -98 190 -84 199 94 58
139 123 150 216 14 118 -32 223 -122 275 -76 44 -138 54 -366 54 l-208 0 0
-475z m466 273 c31 -34 34 -43 34 -98 0 -55 -3 -64 -34 -98 l-34 -37 -121 -3
-121 -4 0 142 0 142 121 -4 121 -3 34 -37z"/>
<path d="M4180 2920 l0 -80 145 0 145 0 0 -395 0 -395 95 0 95 0 0 395 0 395
145 0 145 0 0 80 0 80 -385 0 -385 0 0 -80z"/>
<path d="M968 2224 c-17 -9 -32 -28 -39 -53 -15 -51 3 -90 53 -114 31 -15 44
-16 77 -7 50 13 71 42 71 96 0 35 -5 47 -31 68 -35 30 -88 34 -131 10z"/>
</g>
</svg>
